<?xml version="1.0" encoding="utf-8"?>
<!-- Generator: Adobe Illustrator 16.0.0, SVG Export Plug-In . SVG Version: 6.00 Build 0)  -->
<!DOCTYPE svg PUBLIC "-//W3C//DTD SVG 1.1//EN" "http://www.w3.org/Graphics/SVG/1.1/DTD/svg11.dtd">
<svg version="1.1" id="Layer_1" xmlns="http://www.w3.org/2000/svg" xmlns:xlink="http://www.w3.org/1999/xlink" x="0px" y="0px"
	 width="679.333px" height="156px" viewBox="0 0 679.333 156" enable-background="new 0 0 679.333 156" xml:space="preserve">
<g>
	<path d="M100.002,77.707c0,23.519-17.639,41.519-41.638,41.519s-41.638-18-41.638-41.519s17.639-41.518,41.638-41.518
		S100.002,54.188,100.002,77.707z M87.763,77.707c0-17.759-12.239-30.238-29.399-30.238c-17.159,0-29.399,12.479-29.399,30.238
		s12.24,30.239,29.399,30.239C75.524,107.946,87.763,95.465,87.763,77.707z"/>
	<path d="M110.566,117.665l16.799-86.036l27.839,62.157l28.079-62.157l15.119,86.036h-12.479l-8.16-48.237l-23.279,51.958
		l-23.039-52.078l-8.4,48.357H110.566z"/>
	<path d="M316.604,76.027v11.279h19.919c-0.479,4.56-2.28,9.239-6.72,13.56c-5.16,5.039-10.92,7.08-17.879,7.08
		c-7.68,0-14.52-2.16-20.039-8.04c-1.625-1.735-3.031-3.699-4.204-5.819l16.779-16.779l-16.319-16.319
		c1.146-1.959,2.479-3.734,3.984-5.24c3.959-3.96,10.68-8.279,21.119-8.279c4.92,0,9.719,0.84,14.158,3.479
		c3.84,2.16,7.44,5.76,9.84,9.12l9.721-6.84c-2.281-3.6-6.36-8.279-12.961-12c-6.238-3.479-13.679-5.039-20.879-5.039
		c-12.359,0-23.279,5.039-30.118,11.999c-1.237,1.237-2.42,2.623-3.525,4.139l-39.156-39.157l-24.459,24.459h43.999v11.52h-31.918
		v20.279h30.958v11.52h-30.958v25.198h31.918v11.52h-43.319l23.779,23.779l38.524-38.524c1.304,1.897,2.764,3.702,4.396,5.386
		c7.32,7.561,15.6,10.92,27.24,10.92c9.119,0,18.959-2.16,27.238-10.199c7.799-7.561,11.879-18.72,11.879-32.398v-0.601H316.604z"/>
	<path d="M410.443,98.346h-34.199l-8.76,19.318h-13.199l39.84-84.716l37.918,84.716h-13.199L410.443,98.346z M405.523,86.827
		l-11.879-27.119l-12.359,27.119H405.523z"/>
	<g>
		<path d="M536.394,48.011h-32.45v20.616h31.472v11.711h-31.472v25.617h32.45v11.71h-44.892V36.3h44.892V48.011z"/>
		<path d="M567.008,36.3c9.882,0,16.224,1.22,21.47,4.758c8.905,5.977,9.637,15.614,9.637,19.152c0,11.71-7.198,20.25-18.053,22.688
			l25.373,34.767h-15.006l-23.298-33.302h-2.195v33.302h-12.443V36.3H567.008z M564.936,73.627h3.902
			c3.417,0,17.322-0.366,17.322-13.295c0-11.467-10.858-12.565-16.955-12.565h-4.27V73.627z"/>
		<path d="M635.561,36.3c5.001,0,11.953,0.488,17.809,4.392c6.831,4.514,10.126,12.32,10.126,19.762
			c0,4.757-1.22,12.077-7.931,17.811c-6.464,5.49-13.904,6.343-19.884,6.343h-5.609v33.058h-12.444V36.3H635.561z M630.071,73.14
			h5.609c10.737,0,15.858-5.246,15.858-12.808c0-4.514-1.828-12.565-15.979-12.565h-5.489V73.14z"/>
	</g>
</g>
</svg>
